<svg width="130" height="130" viewBox="0 0 130 130" fill="none" xmlns="http://www.w3.org/2000/svg">
<g opacity="0.3">
<path d="M118.937 29.5725C113.617 22.4806 101.744 20.5202 86.2113 24.1099C85.8782 23.3114 85.5341 22.5271 85.1794 21.7631C86.4374 20.4042 87.1932 18.6563 87.3216 16.809C87.45 14.9617 86.9431 13.126 85.8852 11.6062C84.8272 10.0865 83.2816 8.97393 81.5046 8.45303C79.7276 7.93214 77.826 8.03418 76.115 8.74225C72.6316 5.63926 68.8987 4.0625 64.9992 4.0625C60.5206 4.0625 56.2686 6.12854 52.3618 10.2032C49.0889 13.6162 46.2101 18.2914 43.7866 24.1097C28.2536 20.5205 16.3812 22.4809 11.0622 29.5722C5.01183 37.6373 8.47308 50.8046 20.296 65C19.651 65.7744 19.0267 66.5505 18.4229 67.3283C16.708 66.8505 14.8836 66.9495 13.2305 67.6101C11.5774 68.2707 10.1873 69.4564 9.27406 70.9845C8.36084 72.5126 7.97516 74.2985 8.1764 76.0673C8.37763 77.8361 9.15463 79.4897 10.3878 80.7737C7.14794 88.7326 7.37189 95.5053 11.0619 100.426C14.6405 105.197 21.1821 107.646 29.8103 107.646C34.0084 107.646 38.7024 107.064 43.7866 105.889C46.2096 111.707 49.0889 116.382 52.3618 119.795C56.2686 123.871 60.5206 125.938 64.9992 125.938C69.4779 125.938 73.7298 123.871 77.6366 119.797C80.909 116.384 83.788 111.71 86.211 105.892C87.2976 106.143 88.3707 106.368 89.4303 106.565C89.6545 108.478 90.5505 110.248 91.9586 111.561C93.3666 112.875 95.1953 113.645 97.1185 113.735C99.0418 113.826 100.935 113.23 102.46 112.055C103.985 110.88 105.043 109.201 105.445 107.318C111.514 106.494 116.16 104.132 118.936 100.428C124.986 92.363 121.526 79.1956 109.703 65C121.526 50.8041 124.986 37.637 118.937 29.5725ZM115.687 32.01C120.393 38.2837 117.051 49.6158 106.995 61.8932C102.515 57.0148 97.6316 52.5222 92.3975 48.4631C91.4433 41.0711 89.8267 34.044 87.6806 27.9431C101.114 24.9471 111.496 26.423 115.687 32.0102V32.01ZM83.7197 101.069C78.9424 99.7357 74.2658 98.0654 69.7249 96.0705C74.1186 93.8024 78.3926 91.3096 82.5299 88.6019C84.3135 87.4354 86.0644 86.2344 87.7827 84.9989C86.907 90.4653 85.5477 95.843 83.7207 101.069L83.7197 101.069ZM46.2767 101.069C44.4496 95.8428 43.0901 90.465 42.2142 84.9987C43.9285 86.2301 45.6796 87.4311 47.4672 88.6016C51.6045 91.3095 55.8785 93.8024 60.2722 96.0705C55.7314 98.0654 51.0549 99.7358 46.2777 101.069L46.2767 101.069ZM46.2767 28.9308C51.0539 30.2638 55.7306 31.9341 60.2715 33.929C55.8778 36.1971 51.6038 38.6899 47.4665 41.3976C45.6827 42.5641 43.9318 43.7651 42.2137 45.0006C43.09 39.5343 44.45 34.1567 46.2777 28.9311L46.2767 28.9308ZM49.6897 85.2015C46.8419 83.3394 44.0682 81.378 41.4296 79.3647C40.3544 69.8183 40.3544 60.1812 41.4296 50.6347C44.0682 48.6215 46.8421 46.6598 49.6897 44.7977C54.6033 41.5796 59.7168 38.6777 64.9992 36.1095C70.2814 38.6778 75.3945 41.5799 80.3077 44.7982C83.1555 46.6604 85.9292 48.6218 88.5678 50.635C89.1071 55.4043 89.3763 60.2003 89.3742 65C89.3764 69.7997 89.1071 74.5957 88.5678 79.365C85.9292 81.3782 83.1553 83.3399 80.3077 85.202C75.3945 88.4202 70.2813 91.3222 64.9992 93.8905C59.717 91.3222 54.6039 88.4201 49.6907 85.2018L49.6897 85.2015ZM37.0032 75.8352C32.9724 72.4985 29.1856 68.8775 25.6719 65C29.1863 61.1222 32.9735 57.5008 37.0045 54.1633C36.7125 57.7289 36.5617 61.3559 36.5617 65C36.5617 68.6441 36.7125 72.2698 37.0043 75.8354L37.0032 75.8352ZM83.7207 28.9311C85.5477 34.157 86.9072 39.5348 87.7832 45.0011C86.0688 43.7696 84.3178 42.5687 82.5302 41.3981C78.3929 38.6903 74.1189 36.1973 69.7252 33.9292C74.2663 31.9343 78.9432 30.2641 83.7207 28.9311ZM92.9941 54.1646C97.0253 57.5013 100.812 61.1224 104.326 65C100.812 68.8777 97.0249 72.4992 92.9939 75.8367C93.2859 72.2711 93.4367 68.6441 93.4367 65C93.4367 61.3559 93.2859 57.7302 92.9941 54.1646ZM83.2804 16.25C83.2804 17.0535 83.0422 17.8389 82.5958 18.507C82.1494 19.1751 81.5149 19.6958 80.7726 20.0033C80.0303 20.3107 79.2134 20.3912 78.4254 20.2344C77.6373 20.0777 76.9135 19.6908 76.3453 19.1226C75.7772 18.5545 75.3903 17.8306 75.2335 17.0426C75.0768 16.2545 75.1572 15.4377 75.4647 14.6953C75.7722 13.953 76.2929 13.3185 76.9609 12.8722C77.629 12.4258 78.4145 12.1875 79.2179 12.1875C80.295 12.1888 81.3276 12.6172 82.0892 13.3788C82.8508 14.1404 83.2792 15.1729 83.2804 16.25ZM64.9992 8.125C67.6571 8.125 70.2782 9.18074 72.8124 11.2605C71.7431 12.6311 71.1419 14.3088 71.0972 16.0467C71.0526 17.7845 71.5669 19.4908 72.5644 20.9146C73.562 22.3383 74.9902 23.4043 76.6388 23.9558C78.2875 24.5072 80.0696 24.515 81.723 23.9779C81.8946 24.3569 82.0639 24.7403 82.2308 25.1281C76.32 26.8145 70.5569 28.9814 64.9992 31.607C59.4406 28.9808 53.6766 26.8135 47.7648 25.1268C52.3958 14.2888 58.6094 8.125 64.9992 8.125ZM14.3119 32.01C18.5026 26.424 28.8836 24.9468 42.3178 27.9434C40.1723 34.0432 38.5556 41.0688 37.6015 48.4608C32.3676 52.521 27.4843 57.014 23.0034 61.8924C12.9469 49.6163 9.60524 38.284 14.3119 32.01ZM16.2492 71.0938C17.0527 71.0938 17.8381 71.332 18.5062 71.7784C19.1743 72.2248 19.695 72.8593 20.0025 73.6016C20.3099 74.3439 20.3904 75.1608 20.2336 75.9488C20.0769 76.7369 19.69 77.4607 19.1218 78.0289C18.5537 78.597 17.8298 78.9839 17.0418 79.1407C16.2537 79.2974 15.4369 79.217 14.6946 78.9095C13.9522 78.602 13.3178 78.0813 12.8714 77.4133C12.425 76.7452 12.1867 75.9597 12.1867 75.1562C12.188 74.0792 12.6164 73.0466 13.378 72.285C14.1396 71.5234 15.1722 71.095 16.2492 71.0938ZM14.3122 97.9903C11.0223 93.6023 12.0778 87.6817 13.9013 82.9337C15.6367 83.4585 17.4978 83.3876 19.1881 82.7322C20.8785 82.0768 22.301 80.8747 23.229 79.3172C24.157 77.7597 24.5372 75.9365 24.309 74.138C24.0807 72.3394 23.2573 70.6689 21.9697 69.3926C22.3066 68.9635 22.6509 68.5345 23.0029 68.1058C27.4833 72.9848 32.3666 77.4779 37.6009 81.5374C38.5551 88.9294 40.1717 95.9565 42.3178 102.057C28.8843 105.053 18.5029 103.577 14.3122 97.9903ZM64.9992 121.875C58.6094 121.875 52.3958 115.711 47.7648 104.873C53.6767 103.186 59.4407 101.019 64.9992 98.393C70.5578 101.019 76.3218 103.186 82.2336 104.873C77.6026 115.711 71.389 121.875 64.9992 121.875ZM97.4992 109.688C96.6957 109.688 95.9103 109.449 95.2422 109.003C94.5741 108.556 94.0534 107.922 93.7459 107.18C93.4385 106.437 93.358 105.62 93.5148 104.832C93.6715 104.044 94.0584 103.321 94.6266 102.752C95.1947 102.184 95.9186 101.797 96.7066 101.641C97.4947 101.484 98.3115 101.564 99.0538 101.872C99.7962 102.179 100.431 102.7 100.877 103.368C101.323 104.036 101.562 104.822 101.562 105.625C101.56 106.702 101.132 107.735 100.37 108.496C99.6088 109.258 98.5762 109.686 97.4992 109.688ZM115.686 97.9908C113.629 100.736 110.047 102.532 105.267 103.243C104.776 101.643 103.802 100.233 102.479 99.2068C101.156 98.1807 99.5486 97.5884 97.8761 97.5109C96.2037 97.4333 94.5481 97.8744 93.1358 98.7736C91.7236 99.6729 90.6236 100.986 89.9864 102.535C89.2272 102.39 88.4587 102.231 87.6809 102.056C89.8264 95.9565 91.4428 88.9309 92.3969 81.5392C97.6309 77.4791 102.514 72.9861 106.995 68.1076C117.051 80.3837 120.393 91.716 115.686 97.9908Z" fill="#E7E7E7"/>
<path d="M65 48.75C61.7861 48.75 58.6443 49.703 55.972 51.4886C53.2997 53.2742 51.2169 55.8121 49.987 58.7814C48.757 61.7507 48.4352 65.018 49.0622 68.1702C49.6893 71.3224 51.2369 74.2179 53.5095 76.4905C55.7821 78.7631 58.6776 80.3108 61.8298 80.9378C64.982 81.5648 68.2493 81.243 71.2186 80.013C74.1879 78.7831 76.7258 76.7003 78.5114 74.028C80.297 71.3557 81.25 68.2139 81.25 65C81.2452 60.6917 79.5316 56.5613 76.4852 53.5149C73.4387 50.4684 69.3083 48.7548 65 48.75ZM65 77.1875C62.5896 77.1875 60.2332 76.4727 58.229 75.1335C56.2248 73.7944 54.6627 71.8909 53.7402 69.664C52.8178 67.437 52.5764 64.9865 53.0467 62.6223C53.5169 60.2582 54.6777 58.0866 56.3821 56.3821C58.0866 54.6777 60.2582 53.5169 62.6223 53.0467C64.9865 52.5764 67.437 52.8178 69.664 53.7402C71.8909 54.6627 73.7944 56.2248 75.1335 58.229C76.4727 60.2332 77.1875 62.5895 77.1875 65C77.1838 68.2312 75.8986 71.329 73.6138 73.6138C71.329 75.8986 68.2312 77.1838 65 77.1875Z" fill="#E7E7E7"/>
</g>
</svg>
