<svg width="168" height="259" viewBox="0 0 168 259" fill="none" xmlns="http://www.w3.org/2000/svg">
<g opacity="0.3">
<path d="M240.515 223.03C237.2 223.03 234.098 223.958 231.454 225.566L160.701 154.814C160.578 154.69 160.448 154.58 160.314 154.476C165.857 147.65 169.188 138.958 169.188 129.5C169.188 120.054 165.866 111.373 160.336 104.552L208.565 56.3222C213.743 60.2654 220.198 62.6134 227.193 62.6134C244.18 62.6134 258 48.7937 258 31.8067C258 14.8197 244.18 1 227.193 1C210.206 1 196.387 14.8197 196.387 31.8067C196.387 38.8023 198.735 45.2573 202.678 50.4345L154.448 98.6639C147.627 93.1342 138.946 89.8121 129.5 89.8121C120.054 89.8121 111.373 93.1342 104.552 98.6644L82.2803 76.3931C83.8889 73.7488 84.8164 70.6464 84.8164 67.3315C84.8164 57.6904 76.9726 49.8467 67.3315 49.8467C57.6904 49.8467 49.8467 57.6904 49.8467 67.3315C49.8467 76.9726 57.6904 84.8164 67.3315 84.8164C70.6464 84.8164 73.7488 83.8889 76.3931 82.2803L98.6644 104.552C93.1342 111.373 89.8121 120.054 89.8121 129.5C89.8121 134.858 90.885 139.968 92.8178 144.635L39.8614 173.319C35.8371 168.427 29.7396 165.302 22.9255 165.302C10.8359 165.302 1 175.138 1 187.228C1 199.317 10.8359 209.153 22.9255 209.153C35.015 209.153 44.851 199.317 44.851 187.228C44.851 184.932 44.4946 182.717 43.8368 180.636L96.7955 151.95C103.958 162.352 115.943 169.188 129.5 169.188C131.021 169.188 132.52 169.094 133.997 168.926L139.516 193.762C133.751 196.623 129.778 202.57 129.778 209.431C129.778 219.072 137.621 226.916 147.262 226.916C156.904 226.916 164.747 219.072 164.747 209.431C164.747 199.917 157.109 192.16 147.644 191.955L142.124 167.117C146.661 165.591 150.835 163.271 154.476 160.314C154.581 160.448 154.691 160.578 154.814 160.701L225.566 231.454C223.958 234.098 223.03 237.2 223.03 240.515C223.03 250.156 230.874 258 240.515 258C250.156 258 258 250.156 258 240.515C258 230.874 250.156 223.03 240.515 223.03ZM22.9255 200.827C15.427 200.827 9.32613 194.726 9.32613 187.228C9.32613 179.729 15.427 173.629 22.9255 173.629C30.424 173.629 36.5248 179.729 36.5248 187.228C36.5248 194.726 30.424 200.827 22.9255 200.827ZM156.421 209.431C156.421 214.481 152.312 218.59 147.262 218.59C142.212 218.59 138.104 214.481 138.104 209.431C138.104 204.381 142.212 200.272 147.262 200.272C152.312 200.272 156.421 204.381 156.421 209.431ZM227.193 9.32613C239.589 9.32613 249.674 19.4107 249.674 31.8067C249.674 44.2026 239.589 54.2873 227.193 54.2873C214.797 54.2873 204.713 44.2026 204.713 31.8067C204.713 19.4107 214.797 9.32613 227.193 9.32613ZM58.1728 67.3315C58.1728 62.2815 62.2815 58.1728 67.3315 58.1728C72.3816 58.1728 76.4903 62.2815 76.4903 67.3315C76.4903 72.3816 72.3816 76.4903 67.3315 76.4903C62.2815 76.4903 58.1728 72.3816 58.1728 67.3315ZM129.5 160.862C112.207 160.862 98.1382 146.793 98.1382 129.5C98.1382 112.207 112.207 98.1382 129.5 98.1382C146.793 98.1382 160.862 112.207 160.862 129.5C160.862 146.793 146.793 160.862 129.5 160.862ZM240.515 249.674C235.465 249.674 231.356 245.565 231.356 240.515C231.356 235.465 235.465 231.356 240.515 231.356C245.565 231.356 249.674 235.465 249.674 240.515C249.674 245.565 245.565 249.674 240.515 249.674Z" fill="#E7E7E7"/>
<path d="M129.5 107.575C127.201 107.575 125.337 109.438 125.337 111.738C125.337 114.037 127.201 115.901 129.5 115.901C136.998 115.901 143.099 122.001 143.099 129.5C143.099 131.799 144.963 133.663 147.262 133.663C149.562 133.663 151.425 131.799 151.425 129.5C151.425 117.41 141.59 107.575 129.5 107.575Z" fill="#E7E7E7"/>
<rect x="1" y="1" width="257" height="257" stroke="white" stroke-width="2"/>
</g>
</svg>
