<svg width="123" height="123" viewBox="0 0 123 123" fill="none" xmlns="http://www.w3.org/2000/svg">
<g clip-path="url(#clip0)">
<path d="M111.717 61.8328C112.231 58.5578 110.326 55.3724 107.187 54.2587C98.4237 51.1514 89.4832 48.423 80.4449 46.094C82.3071 39.2541 83.8158 32.2299 84.9236 25.1867C85.4397 21.9143 83.5354 18.7286 80.3922 17.611L79.3946 17.2587C78.6353 16.9904 77.7948 17.3892 77.5253 18.1522C77.2559 18.9152 77.6559 19.752 78.4189 20.0215L79.4136 20.3728C81.2259 21.0171 82.3261 22.8498 82.0294 24.7309C80.9352 31.687 79.4445 38.6236 77.6035 45.3767C71.4665 43.8557 65.2888 42.5179 59.0942 41.3723C55.8165 40.7666 52.5739 42.5734 51.3843 45.6672C48.584 52.938 46.2201 60.3901 44.3089 67.9545C38.6081 70.8124 33.8069 71.3288 32.8636 70.9082C32.5448 70.0965 33.5333 68.4791 34.6704 66.6178C35.6335 65.0415 36.7253 63.2552 37.6341 61.0824C37.7951 60.6972 37.7842 60.2617 37.6043 59.8851C37.4243 59.5085 37.0921 59.2265 36.6912 59.11C30.9181 57.4327 25.1202 55.5637 19.4581 53.5543C17.6466 52.9132 16.5463 51.0809 16.8419 49.1981C18.9409 35.8478 22.468 22.6842 27.3253 10.0736C28.0104 8.29639 29.8804 7.25915 31.7705 7.60684C45.674 10.1784 59.5216 13.7263 72.9286 18.152C73.6955 18.4046 74.5253 17.9883 74.7791 17.2202C75.0326 16.4519 74.6154 15.6234 73.8472 15.3697C60.3147 10.9024 46.3375 7.32121 32.3023 4.7255C29.026 4.12265 25.7832 5.92854 24.5914 9.0201C19.6599 21.824 16.0789 35.1887 13.9476 48.7435C13.4334 52.0201 15.34 55.2049 18.4796 56.3162C23.6619 58.1551 28.9579 59.8781 34.2455 61.4458C33.5756 62.7906 32.8402 63.9942 32.1704 65.0901C30.4985 67.8263 29.0544 70.1894 30.3733 72.471C30.7418 73.1093 31.3506 73.5426 32.2097 73.7728C33.3697 74.0836 34.986 74.0239 37.0821 73.5974C39.0784 73.1914 41.2896 72.484 43.433 71.5791C42.3703 76.1509 41.4688 80.7586 40.7408 85.3894C40.2245 88.6632 42.1296 91.8483 45.2708 92.9628C49.9041 94.6061 54.6285 96.1581 59.3266 97.5799C61.2048 104.348 68.1084 112.108 71.9367 113.805C72.2144 113.929 72.4826 114.025 72.7411 114.094C73.6002 114.324 74.3522 114.257 74.9835 113.893C77.267 112.576 77.1981 109.807 77.1184 106.602C77.0865 105.318 77.0512 103.907 77.1434 102.408C79.564 102.988 82.0244 103.548 84.4797 104.076C85.2707 104.247 86.05 103.743 86.2203 102.952C86.3906 102.161 85.8865 101.381 85.0964 101.212C82.1086 100.569 79.113 99.8791 76.1927 99.1621C75.7874 99.0626 75.3588 99.1407 75.0146 99.3769C74.6704 99.6131 74.4432 99.9847 74.3904 100.399C74.091 102.735 74.1432 104.828 74.1893 106.674C74.2435 108.854 74.2908 110.748 73.6093 111.293C72.8946 111.212 70.5764 109.766 67.6846 106.354C64.7486 102.89 62.6161 99.0599 61.9797 96.1091C61.8672 95.5871 61.4796 95.1678 60.9683 95.0144C56.053 93.5412 51.1012 91.9218 46.2504 90.2012C44.4383 89.5583 43.3384 87.7267 43.6351 85.845C45.734 72.4947 49.2612 59.3311 54.1188 46.7192C54.8025 44.941 56.6711 43.9038 58.5618 44.2531C74.7047 47.2382 90.7353 51.5336 106.207 57.0197C108.018 57.6622 109.118 59.4951 108.822 61.3778C106.723 74.7281 103.196 87.8915 98.339 100.502C97.6538 102.28 95.7851 103.316 93.8948 102.967C92.8619 102.777 91.8229 102.58 90.8068 102.381C90.0128 102.226 89.2431 102.744 89.0878 103.538C88.9326 104.332 89.4519 105.102 90.2444 105.257C91.2711 105.458 92.3208 105.657 93.3634 105.849C96.6383 106.454 99.8806 104.648 101.073 101.556C106.005 88.7522 109.586 75.3874 111.717 61.8328Z" fill="#E7E7E7"/>
<path d="M64.4143 66.4712C63.4479 66.2123 62.8115 65.2705 62.9342 64.2795C62.9457 64.1869 62.9638 64.0935 62.9885 64.0016C63.1979 63.2201 62.734 62.4168 61.9525 62.2074C61.171 61.998 60.3677 62.4618 60.1583 63.2433C60.0987 63.4659 60.0544 63.6939 60.0263 63.9201C59.7251 66.3527 61.2855 68.666 63.656 69.3012C66.2905 70.0071 69.008 68.438 69.7138 65.8037C70.0649 64.4935 69.8533 63.163 69.2279 62.0694C70.3163 61.4351 71.1648 60.3885 71.5159 59.0783C72.2218 56.4438 70.6529 53.7264 68.0184 53.0205C65.7405 52.4101 63.3346 53.5023 62.2977 55.6174C61.9417 56.3438 62.2418 57.2216 62.9684 57.5777C63.695 57.9339 64.5726 57.6336 64.9287 56.907C65.3507 56.046 66.3313 55.6015 67.2601 55.8504C68.3341 56.1382 68.9735 57.246 68.6858 58.3198C68.398 59.3937 67.2903 60.0334 66.2164 59.7456C65.4349 59.5362 64.6315 60.0001 64.4221 60.7816C64.2127 61.5631 64.6765 62.3664 65.458 62.5758C66.532 62.8636 67.1714 63.9714 66.8837 65.0452C66.596 66.1189 65.4882 66.759 64.4143 66.4712Z" fill="#E7E7E7"/>
<path d="M81.0598 86.9513C80.3112 87.2516 79.9459 88.1009 80.2436 88.8512C80.4212 89.299 80.795 89.6105 81.2271 89.7263C81.5206 89.805 81.8413 89.7932 82.1454 89.6725C82.3654 89.5852 87.5273 87.4774 89.9167 81.5571C90.0309 81.3007 90.1271 81.0327 90.202 80.7532C90.9725 77.8776 89.2598 74.9111 86.384 74.1406C83.5084 73.3701 80.5419 75.0828 79.7714 77.9584C79.0009 80.834 80.7136 83.8005 83.5892 84.571C83.8262 84.6345 84.0639 84.6796 84.3008 84.7101C82.6575 86.2791 81.0987 86.9352 81.0598 86.9513ZM82.6015 78.7169C82.9539 77.4018 84.3106 76.6185 85.6256 76.9709C86.9409 77.3233 87.7242 78.68 87.3718 79.9951C87.0194 81.3102 85.6628 82.0935 84.3475 81.741C83.0324 81.3887 82.2491 80.032 82.6015 78.7169Z" fill="#E7E7E7"/>
<path d="M100.049 70.549C100.259 69.7675 99.7948 68.9641 99.0133 68.7547L81.5911 64.0865C80.9771 63.922 80.3269 64.1722 79.9818 64.706L68.2844 82.7956L67.0709 73.5142C66.9941 72.9262 66.5702 72.4425 65.9974 72.2891L59.748 70.6145C58.9665 70.4051 58.1632 70.869 57.9538 71.6505C57.7444 72.4319 58.2082 73.2353 58.9897 73.4447L64.2924 74.8656L65.8961 87.1302C65.9733 87.7199 66.3985 88.2023 66.9692 88.3552C66.9881 88.3603 67.0071 88.3649 67.0261 88.3692C67.6255 88.5046 68.2454 88.2514 68.5789 87.7358L81.863 67.1925L98.255 71.5847C99.0364 71.7943 99.8398 71.3305 100.049 70.549Z" fill="#E7E7E7"/>
<path d="M44.0118 33.6233C45.6093 33.7417 47.1983 33.3588 48.6 32.5002C50.4262 31.3819 51.6781 29.6102 52.1254 27.5116C52.965 23.5712 50.589 19.6058 46.7161 18.4839C42.9465 17.3938 38.9691 19.2876 37.4453 22.8873C37.3058 23.2168 37.1879 23.5601 37.0948 23.9078C36.8854 24.6893 37.3492 25.4927 38.1307 25.7021C38.9122 25.9115 39.7155 25.4477 39.9249 24.6662C39.9831 24.4488 40.0567 24.2348 40.1436 24.0295C41.0893 21.7954 43.5629 20.6186 45.9011 21.2983C48.3056 21.9947 49.781 24.4558 49.2601 26.901C48.982 28.2059 48.2043 29.3069 47.0702 30.0015C45.9353 30.6966 44.6034 30.89 43.32 30.5461C42.5385 30.3367 41.7352 30.8005 41.5258 31.582L39.8299 37.911C39.6205 38.6925 40.0843 39.4958 40.8658 39.7052C41.6473 39.9146 42.4507 39.4508 42.6601 38.6693L44.0121 33.6234L44.0118 33.6233Z" fill="#E7E7E7"/>
<path d="M40.2693 41.9297C39.4878 41.7203 38.6845 42.1841 38.4751 42.9656L38.4496 43.0605C38.2402 43.842 38.7041 44.6454 39.4856 44.8548C40.2671 45.0642 41.0704 44.6004 41.2798 43.8189L41.3052 43.7239C41.5146 42.9424 41.0508 42.1391 40.2693 41.9297Z" fill="#E7E7E7"/>
</g>
<defs>
<clipPath id="clip0">
<rect width="100" height="100" fill="white" transform="translate(25.8828) rotate(15)"/>
</clipPath>
</defs>
</svg>
