<svg width="89" height="89" viewBox="0 0 89 89" fill="none" xmlns="http://www.w3.org/2000/svg">
<g clip-path="url(#clip0)">
<path d="M21.2995 33.9034L8.12786 35.4614C7.29759 35.5596 6.68688 36.2595 6.68553 37.0854L6.65872 65.6101C6.66382 66.0719 6.86623 66.527 7.21599 66.8323C7.56576 67.1378 8.03036 67.2974 8.50264 67.2415L21.8045 65.6681C22.6999 65.5622 23.346 64.7426 23.24 63.8469C23.134 62.9511 22.3148 62.3049 21.4192 62.4108L9.95714 63.7666L9.96416 52.7997L18.398 51.8021C19.2934 51.6962 19.9395 50.8766 19.8335 49.9809C19.7275 49.0851 18.9083 48.4389 18.0127 48.5448L9.96942 49.4962L9.97645 38.5293L21.699 37.1427C22.5944 37.0368 23.2404 36.2172 23.1345 35.3214C23.0285 34.4257 22.2112 33.7956 21.2995 33.9034Z" fill="#E7E7E7"/>
<path d="M34.234 43.0422L26.0283 44.0129C25.1329 44.1188 24.4868 44.9384 24.5928 45.8341C24.6987 46.7298 25.518 47.3761 26.4136 47.2701L34.6193 46.2995C35.5147 46.1936 36.1608 45.374 36.0548 44.4783C35.9489 43.5825 35.1294 42.9363 34.234 43.0422Z" fill="#E7E7E7"/>
<path d="M35.0721 50.1271L26.8663 51.0977C25.971 51.2036 25.3249 52.0232 25.4308 52.9189C25.5368 53.8146 26.3561 54.4609 27.2516 54.355L35.4574 53.3843C36.3528 53.2784 36.9988 52.4588 36.8929 51.5631C36.7869 50.6674 35.9675 50.0211 35.0721 50.1271Z" fill="#E7E7E7"/>
<path d="M81.3908 30.3957L79.9092 30.571C80.2811 29.6683 80.4423 28.6582 80.3228 27.6484C80.319 27.6158 80.3151 27.5833 80.3132 27.567C79.767 24.3451 76.4916 22.0571 73.0237 22.4673C72.1283 22.5732 71.4822 23.3928 71.5882 24.2886C71.6941 25.1843 72.5134 25.8305 73.409 25.7246C75.1348 25.5205 76.7974 26.5954 77.0723 28.0824C77.2151 29.5684 76.0407 30.9459 74.3753 31.2421L73.1867 31.3827C72.2913 31.4886 71.6452 32.3082 71.7512 33.2039C71.8571 34.0996 72.6764 34.7459 73.572 34.64L81.7777 33.6693C82.6731 33.5634 83.3192 32.7438 83.2132 31.8481C83.1073 30.9524 82.2864 30.2898 81.3908 30.3957Z" fill="#E7E7E7"/>
<path d="M69.427 42.1659C70.3224 42.06 70.9685 41.2404 70.8625 40.3447C70.7566 39.4489 69.9373 38.8027 69.0417 38.9086C65.5249 39.3246 62.4529 41.6862 61.0233 45.0924C61.0252 45.1086 61.0089 45.1106 61.0108 45.1268C59.6521 48.5741 60.1261 52.5807 62.2516 55.6158C62.2535 55.6321 62.2698 55.6302 62.2717 55.6465C64.4565 58.625 67.9948 60.2048 71.5116 59.7888C72.407 59.6829 73.0531 58.8633 72.9471 57.9675C72.8411 57.0718 72.0219 56.4256 71.1263 56.5315C68.7818 56.8088 66.4094 55.7351 64.9322 53.7134C63.4433 51.5939 63.11 48.7762 64.0614 46.3516C65.0424 44.0387 67.0988 42.4413 69.427 42.1659Z" fill="#E7E7E7"/>
<path d="M50.8899 41.0721C49.5711 41.2281 48.428 41.8917 47.6489 42.8427C47.3797 42.6598 47.0779 42.4809 46.7474 42.3383C45.0994 41.5257 43.2107 41.7491 41.7978 42.9237C40.2996 44.0754 39.5891 45.7449 39.8126 47.6341L41.4617 61.576C41.5677 62.4717 42.387 63.1179 43.2825 63.012C44.1781 62.9061 44.824 62.0865 44.7181 61.1908L43.0689 47.249C42.9841 46.5323 43.2299 45.9583 43.8226 45.5249C43.8532 45.5047 43.8676 45.4865 43.8819 45.4683C44.3031 45.1212 44.8405 45.0576 45.3147 45.2989C45.3329 45.3132 45.3674 45.3256 45.3856 45.34C46.0649 45.6395 46.436 46.124 46.5208 46.8407L48.1699 60.7825C48.2758 61.6782 49.0951 62.3245 49.9907 62.2185C50.8863 62.1126 51.5322 61.293 51.4262 60.3973L49.7771 46.4555C49.7732 46.4229 49.7713 46.4066 49.7674 46.3741C49.7655 46.3578 49.7636 46.3415 49.7617 46.3252C49.6461 45.3479 50.3475 44.4393 51.2756 44.3295C52.1384 44.2274 52.9752 45.0202 53.0985 46.0626L54.7476 60.0044C54.8536 60.9001 55.6729 61.5464 56.5685 61.4405C57.464 61.3345 58.1099 60.515 58.004 59.6192L56.3548 45.6774C56.0317 42.8089 53.5763 40.7543 50.8899 41.0721Z" fill="#E7E7E7"/>
</g>
<defs>
<clipPath id="clip0">
<rect width="80" height="80" fill="white" transform="translate(0 9.39746) rotate(-6.74603)"/>
</clipPath>
</defs>
</svg>
