<svg width="143" height="143" viewBox="0 0 143 143" fill="none" xmlns="http://www.w3.org/2000/svg">
<g opacity="0.3" clip-path="url(#clip0_8144_25721)">
<path d="M115.399 13.9954C114.655 13.8575 113.897 14.1806 113.483 14.8161L95.6981 42.1334L89.2677 11.7066C89.0537 10.6939 88.06 10.0454 87.0456 10.2598L46.6871 18.7891C23.4204 23.7062 8.4944 46.6343 13.4112 69.8992C17.6305 89.8639 35.302 104.011 55.3532 104.101L36.804 132.592C36.3903 133.227 36.3992 134.049 36.8285 134.675C37.2557 135.3 38.0217 135.606 38.7628 135.449L135.99 114.901C137.005 114.687 137.651 113.692 137.437 112.679L116.889 15.4513C116.732 14.7102 116.145 14.1348 115.399 13.9954ZM49.3148 22.1547C58.585 20.6517 67.7786 22.532 75.4725 27.027L56.5027 56.1661L49.3148 22.1547ZM59.6608 62.0414L65.3157 88.7992L60.9754 95.4657L54.1573 63.2044L59.6608 62.0414ZM63.3297 61.266L68.8331 60.1029L72.5496 77.6883L68.2093 84.3548L63.3297 61.266ZM72.5021 59.3275L78.0055 58.1644L79.7835 66.5774L75.4432 73.2439L72.5021 59.3275ZM81.6745 57.389L86.4184 56.3864L82.6771 62.133L81.6745 57.389ZM89.312 51.9421L59.6448 58.2119L78.6136 29.0769C84.7487 33.4874 89.6429 39.6703 92.437 47.1422L89.312 51.9421ZM80.6622 25.9303L86.5347 16.9104L90.4977 35.6625C87.7444 31.875 84.4125 28.6045 80.6622 25.9303ZM83.3925 14.8647L77.5172 23.8889C73.5151 21.5285 69.1385 19.8261 64.5525 18.8463L83.3925 14.8647ZM45.6478 22.9393L53.3819 59.5355L16.786 67.2696C13.544 47.2957 26.0702 28.0561 45.6478 22.9393ZM41.316 65.9183L48.4543 99.6949C46.362 99.3072 44.3292 98.7384 42.3526 98.0273L35.8126 67.0814L41.316 65.9183ZM22.9712 69.7952L26.7699 87.7695C22.4481 83.1253 19.2404 77.387 17.5522 70.9405L22.9712 69.7952ZM31.5135 92.0793L26.6402 69.0199L32.1436 67.8568L38.1471 96.2638C35.7963 95.0971 33.5834 93.6848 31.5135 92.0793ZM52.395 100.205L44.985 65.1429L50.4884 63.9798L58.0818 99.9101L57.8503 100.266C56.0106 100.375 54.1908 100.351 52.395 100.205ZM114.156 20.6551L130.666 98.7786L119.659 101.105C118.645 101.319 117.999 102.314 118.213 103.327L120.539 114.334L42.4158 130.844L114.156 20.6551ZM124.208 113.558L122.269 104.386L131.442 102.448L133.38 111.62L124.208 113.558Z" fill="#E7E7E7"/>
<path d="M29.4858 46.2146L32.0392 58.2965L35.7082 57.5211L32.9943 44.6798L36.6633 43.9044L38.2141 51.2423C38.2742 51.5266 38.3999 51.7952 38.58 52.0216L41.1899 55.3028C41.6332 55.8588 42.3509 56.1173 43.0462 55.9703L44.8806 55.5826L44.1053 51.9137L43.4045 52.0618L41.7916 50.0339L40.3323 43.129L44.0013 42.3536L43.2259 38.6846L28.55 41.7862C28.062 41.8893 27.6367 42.1804 27.3666 42.5978L24.473 47.0422L27.6151 49.0879L29.4858 46.2146Z" fill="#E7E7E7"/>
</g>
<defs>
<clipPath id="clip0_8144_25721">
<rect width="120" height="120" fill="white" transform="translate(0.0488281 24.8125) rotate(-11.9332)"/>
</clipPath>
</defs>
</svg>
