<svg width="134" height="134" viewBox="0 0 134 134" fill="none" xmlns="http://www.w3.org/2000/svg">
<g clip-path="url(#clip0)">
<path d="M127.098 83.647L115.934 76.9386C115.166 76.4775 114.17 76.7258 113.709 77.4933C113.248 78.2608 113.496 79.2568 114.264 79.7178L122.074 84.4106L100.097 89.8901L89.0441 45.56C89.2779 45.7303 89.5119 45.9012 89.7466 46.073C94.5854 49.6136 100.07 53.6264 108.281 51.5792C109.149 51.3626 109.678 50.4827 109.461 49.6139C109.245 48.7452 108.365 48.2164 107.496 48.4331C100.759 50.1129 96.3396 46.8796 91.6612 43.4561C86.8223 39.9156 81.3382 35.9028 73.1274 37.9499C64.9186 39.9965 61.9601 46.1129 59.3496 51.5092C58.2026 53.8802 57.1194 56.1198 55.6544 58.0697C55.1167 58.7857 55.2609 59.8019 55.9768 60.3397C56.6927 60.8776 57.7092 60.7329 58.2468 60.0172C59.901 57.8152 61.1046 55.3272 62.2684 52.9208C64.7922 47.7032 67.1761 42.7751 73.9118 41.0958C78.391 39.979 81.8452 41.035 85.0326 42.8736L96.9505 90.6745L90.4382 92.2982C89.5692 92.5148 89.0407 93.3947 89.2573 94.2634C89.4739 95.1322 90.3536 95.661 91.2226 95.4443L122.857 87.5571L118.165 95.366C117.704 96.1335 117.952 97.1296 118.72 97.5905C119.103 97.8212 119.544 97.8744 119.947 97.774C120.349 97.6736 120.714 97.4197 120.945 97.0358L127.653 85.8713C128.114 85.1042 127.866 84.1082 127.098 83.647Z" fill="#E7E7E7"/>
<path d="M83.0972 94.1287L55.6146 100.981L47.0879 66.7811C47.5458 66.7019 48.0114 66.6057 48.4873 66.487C49.6396 66.1997 50.7326 65.8209 51.7361 65.3611C52.55 64.988 52.9074 64.0258 52.5345 63.2118C52.1614 62.3979 51.1999 62.0408 50.3852 62.4135C49.5637 62.7901 48.6615 63.1021 47.7032 63.341C40.968 65.0203 36.5499 61.7876 31.8723 58.3653C28.2186 55.6919 24.4492 52.9365 19.4835 52.3954L14.5162 32.4718L22.3258 37.1644C22.7095 37.3949 23.1505 37.4483 23.553 37.3479C23.9555 37.2476 24.3199 36.9936 24.5504 36.6098C25.0115 35.8423 24.7632 34.8462 23.9957 34.3853L12.8315 27.677C12.7856 27.6495 12.7381 27.6243 12.6896 27.6012C12.6686 27.5913 12.6468 27.5834 12.6257 27.5744C12.5983 27.5628 12.5712 27.5506 12.5433 27.5406C12.5178 27.5316 12.4923 27.5246 12.4667 27.5167C12.4416 27.5091 12.4168 27.5008 12.3914 27.4943C12.3657 27.4877 12.3398 27.4833 12.314 27.4781C12.2878 27.4729 12.262 27.467 12.2354 27.463C12.2107 27.4593 12.1859 27.4575 12.1612 27.455C12.1333 27.4521 12.1055 27.4486 12.0771 27.4472C12.053 27.4461 12.0289 27.4467 12.0046 27.4468C11.9758 27.4466 11.9473 27.4459 11.9185 27.4471C11.8916 27.4484 11.8651 27.4519 11.8385 27.4545C11.8124 27.457 11.7867 27.4585 11.7605 27.4624C11.7141 27.4693 11.6684 27.4787 11.6229 27.4894C11.6166 27.4909 11.6103 27.4914 11.604 27.493C11.5977 27.4945 11.5918 27.4969 11.5856 27.4987C11.5404 27.5106 11.4954 27.5238 11.4514 27.5395C11.4264 27.5484 11.4028 27.5592 11.3788 27.5692C11.3541 27.5793 11.3291 27.5887 11.3047 27.6001C11.2786 27.6124 11.2537 27.6266 11.2283 27.6403C11.2071 27.6516 11.1855 27.6624 11.1647 27.6747C11.1405 27.6892 11.1176 27.7054 11.0941 27.721C11.0735 27.7348 11.0523 27.7482 11.0323 27.7629C11.0109 27.7787 10.9907 27.7962 10.97 27.8132C10.9497 27.8299 10.929 27.846 10.9093 27.8638C10.8899 27.8815 10.8719 27.9005 10.8531 27.919C10.8342 27.9377 10.8149 27.9559 10.7969 27.9758C10.7768 27.9979 10.7586 28.0214 10.7397 28.0446C10.7252 28.0625 10.7098 28.0795 10.696 28.0981C10.6639 28.1411 10.634 28.1855 10.6063 28.2316L3.89809 39.3961C3.43692 40.1636 3.68526 41.1596 4.45271 41.6206C4.83633 41.8511 5.27737 41.9044 5.67986 41.8041C6.08235 41.7037 6.44678 41.4498 6.67723 41.066L11.37 33.2562L29.8564 107.403L22.2848 109.291C21.416 109.507 20.8873 110.387 21.1039 111.256C21.3205 112.125 22.2004 112.653 23.0692 112.437L30.6408 110.549L33.0406 120.174C33.2572 121.043 34.1371 121.572 35.0059 121.355C35.8746 121.138 36.4034 120.259 36.1868 119.39L33.787 109.765L83.8816 97.2748C84.7506 97.0582 85.2791 96.1783 85.0625 95.3096C84.8459 94.4408 83.9662 93.912 83.0972 94.1287ZM20.336 55.8144C23.8956 56.5536 26.8559 58.7124 29.9574 60.9818C33.8131 63.8031 38.0808 66.9209 43.8096 67.0357L52.4685 101.765L33.0026 106.619L20.336 55.8144Z" fill="#E7E7E7"/>
<path d="M71.7027 76.6399C70.745 76.8787 70.0688 76.4941 69.8845 76.3705C69.1405 75.8723 68.1336 76.0712 67.6352 76.8153C67.1369 77.559 67.3359 78.5661 68.0799 79.0645C69.3385 79.9076 70.9451 80.1707 72.4873 79.7862C74.4629 79.2937 75.806 77.5976 75.6811 75.7536C75.5898 74.4074 74.5663 72.7351 71.9821 72.4524C71.0495 72.3501 70.1607 72.2103 69.7458 72.1418C69.7468 72.0898 69.7914 71.9979 69.9477 71.9048C70.648 71.4876 71.7792 71.7767 72.1224 71.9115C72.9478 72.2457 73.8899 71.8515 74.2295 71.027C74.571 70.1994 74.1767 69.2515 73.349 68.91C73.0644 68.7925 70.5039 67.8004 68.2894 69.1187C67.0618 69.8493 66.3845 71.1386 66.5217 72.4834C66.652 73.7592 67.4821 74.811 68.688 75.2288C68.7689 75.2568 68.8515 75.2783 68.9359 75.2931C68.9886 75.3025 70.2425 75.5236 71.6292 75.6753C72.2311 75.7411 72.4431 75.9284 72.4462 75.9729C72.4551 76.1122 72.2547 76.5023 71.7027 76.6399Z" fill="#E7E7E7"/>
<path d="M57.7861 109.691C57.1152 109.858 56.6488 110.421 56.5702 111.069C55.7957 110.903 54.973 110.906 54.1539 111.11C51.2788 111.827 49.5231 114.749 50.2399 117.624C50.9568 120.499 53.8789 122.255 56.7539 121.538C57.5729 121.334 58.3006 120.95 58.9066 120.44C59.2802 120.975 59.9565 121.254 60.6275 121.087C61.4962 120.87 62.0249 119.99 61.8083 119.121L59.7514 110.871C59.5348 110.003 58.6549 109.474 57.7861 109.691ZM55.9697 118.392C54.8293 118.676 53.6705 117.98 53.3863 116.84C53.102 115.7 53.7984 114.541 54.9385 114.256C56.0787 113.972 57.2377 114.668 57.5219 115.809C57.8061 116.949 57.1098 118.108 55.9697 118.392Z" fill="#E7E7E7"/>
<path d="M100.724 99.1067C99.8146 99.3334 99.0244 99.7614 98.3788 100.33L97.6249 97.306C97.4083 96.4372 96.5286 95.9085 95.6596 96.1251C94.7907 96.3418 94.2622 97.2216 94.4788 98.0904L97.5034 110.222C97.72 111.09 98.5997 111.619 99.4686 111.402C100.029 111.263 100.446 110.847 100.615 110.336C101.529 110.604 102.526 110.64 103.536 110.388C106.647 109.613 108.546 106.452 107.771 103.341C106.995 100.231 103.834 98.3312 100.724 99.1067ZM102.752 107.242C101.376 107.585 99.9783 106.745 99.6353 105.37C99.2923 103.994 100.132 102.596 101.508 102.253C102.884 101.91 104.282 102.75 104.625 104.126C104.968 105.501 104.127 106.899 102.752 107.242Z" fill="#E7E7E7"/>
<path d="M43.5377 32.9418L45.1309 39.332C45.3475 40.2008 46.2274 40.7295 47.0961 40.5129C47.9649 40.2963 48.4936 39.4164 48.277 38.5476L46.6873 32.1715L46.9285 32.1114C47.7972 31.8948 48.326 31.0149 48.1094 30.1461C47.8928 29.2774 47.0128 28.7486 46.1441 28.9652L45.9029 29.0254L45.6388 27.966C45.7824 27.9097 45.9865 27.8579 46.146 27.8426C47.0323 27.7698 47.696 26.9952 47.63 26.1066C47.5635 25.2135 46.7858 24.5437 45.893 24.6101C45.5544 24.6353 43.818 24.8261 42.8899 26.1092C42.3836 26.8093 42.2295 27.6952 42.4561 28.6038L42.7603 29.8238C42.0102 30.1151 41.5755 30.9244 41.7752 31.7254C41.9749 32.5264 42.7388 33.0368 43.5377 32.9418Z" fill="#E7E7E7"/>
<path d="M62.2045 34.2715C62.5416 34.4147 62.8998 34.435 63.2295 34.3528C63.7062 34.2339 64.1239 33.9003 64.3306 33.4132L65.6474 30.3135L68.4273 32.5491C68.8385 32.8797 69.3616 32.9769 69.8366 32.8585C70.1678 32.7759 70.4761 32.5881 70.7065 32.3017C71.2678 31.6039 71.1568 30.5836 70.4591 30.0224L66.9648 27.2124L68.4215 23.7835C68.7716 22.9593 68.3873 22.0076 67.5633 21.6574C66.7387 21.3069 65.7871 21.6917 65.4372 22.5157L64.3389 25.1008L62.1409 23.3333C61.4432 22.7723 60.4224 22.8829 59.8614 23.5808C59.3002 24.2785 59.4111 25.2988 60.1089 25.8601L63.0213 28.202L61.346 32.1454C60.9961 32.9696 61.3805 33.9215 62.2045 34.2715Z" fill="#E7E7E7"/>
<path d="M56.1076 37.0605C56.2418 37.027 56.3738 36.9756 56.5005 36.9057C57.2841 36.4726 57.5684 35.4861 57.1353 34.7025C54.4706 29.881 54.8919 26.0584 54.9012 25.9812C55.0172 25.0975 54.3978 24.2848 53.5137 24.1638C52.6266 24.0423 51.8091 24.6629 51.6875 25.5501C51.6607 25.7463 51.0662 30.4248 54.2974 36.2709C54.6604 36.9281 55.4123 37.2338 56.1076 37.0605Z" fill="#E7E7E7"/>
<path d="M75.3461 30.1622C75.3318 31.0573 76.0457 31.7949 76.9406 31.8095C77.0853 31.8118 77.2262 31.7951 77.3604 31.7616C78.0555 31.5883 78.5761 30.9651 78.5881 30.2147C78.6965 23.5359 75.9753 19.6841 75.8595 19.5234C75.3358 18.7972 74.3224 18.633 73.5962 19.1567C72.87 19.6804 72.7058 20.6938 73.2295 21.42C73.2517 21.4508 75.4358 24.6372 75.3461 30.1622Z" fill="#E7E7E7"/>
</g>
<defs>
<clipPath id="clip0">
<rect width="110" height="110" fill="white" transform="translate(0 26.6108) rotate(-13.9997)"/>
</clipPath>
</defs>
</svg>
