<svg width="172" height="134" viewBox="0 0 172 134" fill="none" xmlns="http://www.w3.org/2000/svg">
<path d="M17.3195 99.4509L33.7595 127.107L50.2095 99.4509L66.6495 127.107L83.0895 99.4509L97.5895 123.844L112.099 99.4509L128.539 127.107L144.989 99.4509L161.429 127.107L177.869 99.4509L194.189 126.904L192.369 129.98L177.869 105.587L161.429 133.243L144.989 105.587L128.539 133.243L112.099 105.587L97.5895 129.997L83.0895 105.587L66.6495 133.243L50.2095 105.587L33.7595 133.243L17.3195 105.587L2.80951 129.98L0.999512 126.904L17.3195 99.4509Z" fill="#E7E7E7"/>
<path d="M17.3187 50.0044L33.7587 77.6608L50.2087 50.0044L66.6487 77.6608L83.0887 50.0044L96.1287 71.9469L96.1387 78.1003L83.0887 56.1409L66.6487 83.7972L50.2087 56.1409L33.7587 83.7972L17.3187 56.1409L2.80865 80.5346L0.998657 77.441L17.3187 50.0044Z" fill="#E7E7E7"/>
<path d="M172.851 17.9875L172.871 50.3428L156.291 34.1821L172.851 17.9875Z" fill="#E7E7E7"/>
<path d="M149.88 0L149.91 68.3632L114.87 34.2323L149.88 0ZM144.41 16.0596L125.84 34.2154L144.42 52.3205L144.41 16.0596Z" fill="#E7E7E7"/>
</svg>
