<svg width="17" height="643" viewBox="0 0 17 643" fill="none" xmlns="http://www.w3.org/2000/svg">
<line x1="8.5" x2="8.5" y2="643" stroke="black"/>
<circle cx="8.5" cy="55.5" r="7.55556" fill="white" stroke="black" stroke-width="1.88889"/>
<path d="M9.49827 52.6443V60H8.38486V53.7577H8.34176L6.58185 54.907V53.8439L8.41718 52.6443H9.49827Z" fill="black"/>
<circle cx="8.5" cy="185.5" r="7.55556" fill="white" stroke="black" stroke-width="1.88889"/>
<path d="M5.70756 189V188.195L8.19657 185.617C8.46236 185.337 8.68145 185.091 8.85385 184.88C9.02864 184.667 9.15914 184.465 9.24534 184.273C9.33154 184.082 9.37464 183.878 9.37464 183.663C9.37464 183.419 9.31717 183.208 9.20224 183.031C9.0873 182.851 8.93047 182.713 8.73173 182.618C8.53299 182.519 8.30911 182.47 8.06009 182.47C7.7967 182.47 7.56684 182.524 7.37049 182.632C7.17415 182.74 7.0233 182.892 6.91794 183.088C6.81259 183.284 6.75991 183.514 6.75991 183.778H5.70037C5.70037 183.33 5.80333 182.938 6.00926 182.603C6.21518 182.268 6.49772 182.008 6.85689 181.824C7.21605 181.637 7.6243 181.544 8.08164 181.544C8.54377 181.544 8.95082 181.636 9.3028 181.82C9.65718 182.002 9.93374 182.251 10.1325 182.567C10.3312 182.881 10.4306 183.235 10.4306 183.63C10.4306 183.903 10.3791 184.17 10.2761 184.431C10.1756 184.692 9.99958 184.983 9.74817 185.304C9.49675 185.623 9.14717 186.009 8.69941 186.464L7.2376 187.994V188.048H10.5491V189H5.70756Z" fill="black"/>
<circle cx="8.5" cy="304.5" r="7.55556" fill="white" stroke="black" stroke-width="1.88889"/>
<path d="M8.26841 308.101C7.77515 308.101 7.33458 308.016 6.94668 307.846C6.56117 307.676 6.25588 307.44 6.03081 307.138C5.80812 306.834 5.6884 306.482 5.67164 306.082H6.79942C6.81379 306.3 6.88682 306.489 7.01851 306.65C7.1526 306.808 7.32739 306.93 7.54289 307.016C7.75839 307.102 7.99784 307.145 8.26122 307.145C8.55095 307.145 8.80716 307.095 9.02984 306.994C9.25491 306.894 9.43091 306.754 9.55781 306.574C9.68472 306.392 9.74817 306.183 9.74817 305.946C9.74817 305.699 9.68472 305.482 9.55781 305.295C9.4333 305.106 9.25013 304.958 9.00829 304.85C8.76884 304.742 8.47912 304.688 8.13911 304.688H7.51775V303.783H8.13911C8.41207 303.783 8.65152 303.734 8.85744 303.636C9.06575 303.538 9.22858 303.401 9.3459 303.227C9.46323 303.05 9.52189 302.842 9.52189 302.605C9.52189 302.378 9.47041 302.18 9.36745 302.013C9.26689 301.843 9.12322 301.71 8.93645 301.614C8.75208 301.518 8.53419 301.47 8.28277 301.47C8.04333 301.47 7.81945 301.515 7.61113 301.603C7.40521 301.689 7.2376 301.814 7.1083 301.977C6.979 302.137 6.90956 302.33 6.89999 302.555H5.82608C5.83805 302.158 5.95538 301.808 6.17806 301.506C6.40314 301.205 6.70005 300.969 7.06879 300.799C7.43754 300.629 7.84699 300.544 8.29714 300.544C8.76884 300.544 9.1759 300.636 9.5183 300.82C9.8631 301.002 10.1289 301.245 10.3157 301.549C10.5048 301.853 10.5982 302.186 10.5958 302.548C10.5982 302.96 10.4833 303.309 10.251 303.597C10.0211 303.884 9.71465 304.077 9.33154 304.175V304.232C9.82 304.307 10.1983 304.501 10.4665 304.814C10.7371 305.128 10.8712 305.517 10.8688 305.981C10.8712 306.386 10.7586 306.749 10.5311 307.07C10.3061 307.391 9.99839 307.643 9.60809 307.828C9.2178 308.01 8.77124 308.101 8.26841 308.101Z" fill="black"/>
<circle cx="8.5" cy="439.5" r="7.55556" fill="white" stroke="black" stroke-width="1.88889"/>
<path d="M5.55311 441.563V440.665L8.73173 435.644H9.43929V436.966H8.99033L6.71681 440.565V440.622H11.0735V441.563H5.55311ZM9.04061 443V441.29L9.0478 440.881V435.644H10.1002V443H9.04061Z" fill="black"/>
<circle cx="8.5" cy="584.5" r="7.55556" fill="white" stroke="black" stroke-width="1.88889"/>
<path d="M9.13552 588.101C8.68536 588.101 8.2807 588.014 7.92154 587.842C7.56476 587.667 7.27983 587.428 7.06672 587.124C6.85362 586.82 6.73988 586.472 6.72551 586.082H7.80301C7.82935 586.398 7.96942 586.658 8.22323 586.861C8.47705 587.065 8.78114 587.167 9.13552 587.167C9.41806 587.167 9.66828 587.102 9.88617 586.973C10.1065 586.841 10.2789 586.66 10.4034 586.43C10.5303 586.201 10.5937 585.938 10.5937 585.644C10.5937 585.345 10.5291 585.078 10.3998 584.843C10.2705 584.608 10.0921 584.424 9.86462 584.29C9.63954 584.156 9.38095 584.087 9.08882 584.085C8.86614 584.085 8.64226 584.123 8.41718 584.2C8.19211 584.277 8.01013 584.377 7.87125 584.502L6.85481 584.351L7.26785 580.644H11.3121V581.596H8.19091L7.95745 583.654H8.00055C8.14422 583.515 8.33458 583.399 8.57163 583.306C8.81107 583.212 9.06727 583.166 9.34024 583.166C9.788 583.166 10.1867 583.272 10.5363 583.485C10.8882 583.698 11.1648 583.989 11.3659 584.358C11.5695 584.724 11.67 585.146 11.6676 585.622C11.67 586.099 11.5623 586.524 11.3444 586.897C11.1289 587.271 10.8296 587.565 10.4465 587.781C10.0658 587.994 9.62877 588.101 9.13552 588.101Z" fill="black"/>
</svg>
