<svg width="165" height="165" viewBox="0 0 165 165" fill="none" xmlns="http://www.w3.org/2000/svg">
<g opacity="0.3" clip-path="url(#clip0)">
<path d="M43.2974 80.3341C43.3006 80.3171 43.3036 80.3 43.3063 80.2826C43.4356 79.464 43.0619 78.6567 42.3543 78.2256C42.3537 78.2252 42.3531 78.2249 42.3525 78.2245C41.6435 77.7936 40.754 77.8332 40.0861 78.3254C40.0746 78.334 40.0632 78.3427 40.0519 78.3515L29.7981 86.3045C29.0311 86.8995 28.8914 88.0036 29.4864 88.7707C30.0815 89.5381 31.1856 89.6773 31.9526 89.0824L33.5491 87.8441L37.8139 90.4425C37.6401 91.6471 36.8901 93.2705 38.254 94.2477C38.4299 94.3549 38.6283 94.433 38.8428 94.4733C39.7966 94.6533 40.7161 94.0256 40.8958 93.0716L43.2974 80.3341ZM36.5217 85.5385L39.1182 83.5246L38.5102 86.75L36.5217 85.5385Z" fill="#E7E7E7"/>
<path d="M104.536 44.8421L101.485 42.9832C100.656 42.4781 99.5741 42.7407 99.069 43.5697L96.122 48.4066L96.1173 48.4144L92.6693 54.0738C92.426 54.4731 92.3519 54.9529 92.4631 55.4068C92.5738 55.8585 92.859 56.2477 93.2559 56.4895L93.2625 56.4935C93.2625 56.4935 96.0745 58.1895 96.8475 58.6604C99.2343 60.1146 102.359 59.3559 103.813 56.9691C104.606 55.6683 104.739 54.1487 104.312 52.7994C105.012 52.4263 105.625 51.8721 106.067 51.1473C107.383 48.9871 106.696 46.1584 104.536 44.8421ZM102.707 47.8444C103.212 48.1521 103.372 48.8133 103.065 49.3183C102.757 49.8233 102.096 49.9839 101.591 49.6762C101.368 49.5404 100.039 48.7347 100.039 48.7347L101.157 46.9001L102.707 47.8444ZM98.6765 55.6583C98.289 55.4222 97.3916 54.8799 96.59 54.3956L98.2088 51.7386C98.3583 51.8288 100.293 53.0059 100.293 53.0059C101.024 53.4515 101.256 54.4088 100.811 55.1401C100.365 55.8715 99.4079 56.1039 98.6765 55.6583Z" fill="#E7E7E7"/>
<path d="M103.575 128.163C102.727 126.028 100.492 127.919 98.6119 126.691C96.5438 125.431 95.8863 122.723 97.1463 120.655C98.4064 118.587 101.114 117.929 103.182 119.19C103.934 119.648 104.524 120.31 104.889 121.106C105.293 121.989 106.336 122.377 107.219 121.972C108.102 121.568 108.489 120.525 108.085 119.642C107.427 118.206 106.365 117.011 105.012 116.187C101.288 113.918 96.4126 115.102 94.144 118.826C91.8753 122.549 93.0591 127.425 96.7827 129.693C98.2762 130.603 99.918 130.929 101.531 130.635C102.501 130.589 103.999 129.679 103.575 128.163Z" fill="#E7E7E7"/>
<path d="M124.915 90.3806C125.731 89.302 126.5 88.1735 127.218 86.9948C138.862 67.8832 132.787 42.862 113.675 31.2181C104.925 25.8873 94.5789 24.0665 84.5418 26.0914C74.5616 28.1047 65.773 33.7264 59.7945 41.921C59.2223 42.7053 59.3943 43.8049 60.1786 44.3772C60.9649 44.9506 62.0625 44.7774 62.6348 43.9931C68.094 36.5103 76.1209 31.3765 85.2371 29.5376C94.4044 27.6883 103.854 29.3514 111.846 34.2204C129.302 44.8556 134.851 67.7095 124.216 85.1656C123.822 85.8119 123.409 86.4399 122.983 87.0536C119.774 82.089 115.429 77.7538 110.052 74.4776C104.047 70.8194 97.4594 68.9113 90.8865 68.606C87.5847 62.8863 82.8581 57.9097 76.8929 54.2754C70.8051 50.5578 63.7149 48.5308 56.8947 48.3729C42.8294 48.0086 28.9475 54.9651 21.1166 67.8183C9.47269 86.9299 15.548 111.951 34.6596 123.595C40.5153 127.163 47.0915 129.156 53.8104 129.478C57.191 135.323 62.0143 140.261 67.8181 143.797C86.9297 155.441 111.951 149.366 123.595 130.254C131.249 117.69 131.246 102.573 124.915 90.3806ZM108.222 77.4799C113.511 80.7021 117.705 85.047 120.689 90.0225C113.83 98.0219 104.014 102.532 93.8865 102.911C94.6139 100.934 95.1754 98.9274 95.5794 96.9071C97.0017 89.7891 96.4807 82.0751 93.8671 74.9857C93.531 74.0676 93.1609 73.1615 92.7593 72.2689C98.0786 72.8122 103.36 74.5174 108.222 77.4799ZM73.2707 97.5353C72.7833 97.2384 72.3051 96.9314 71.836 96.6152L92.7592 91.5362C92.6793 92.6976 92.5456 93.8594 92.3539 95.0177L75.9254 99.0065C75.0287 98.5557 74.1427 98.0666 73.2707 97.5353ZM65.4556 91.1651L92.5798 84.5791C92.7122 85.6802 92.7953 86.7889 92.8288 87.9016L68.2537 93.8672C67.2681 93.011 66.3345 92.109 65.4556 91.1651ZM60.9687 85.2522L91.1554 77.9226C91.4819 78.9696 91.7623 80.0311 91.9956 81.1036L62.9414 88.1582C62.2365 87.2182 61.578 86.2486 60.9687 85.2522ZM65.2914 80.5847C71.9384 75.0902 80.2827 72.1294 88.7733 72.0785C89.1945 72.9049 89.5843 73.7456 89.9422 74.5993L65.2914 80.5847ZM91.5066 98.8413C91.1308 100.194 90.6742 101.536 90.1349 102.862C87.2399 102.677 84.3464 102.151 81.5155 101.267L91.5066 98.8413ZM86.7727 68.6246C76.375 69.1948 66.3322 73.7406 59.0441 81.6798C54.7491 72.5529 54.1994 61.784 58.1997 51.9514C63.9901 52.3212 69.7749 54.0551 75.0639 57.2775C79.897 60.2224 83.8385 64.1327 86.7727 68.6246ZM69.6473 140.795C64.9351 137.924 60.9327 134.041 57.9328 129.467C59.8427 129.364 61.7546 129.126 63.6552 128.749C73.5861 126.781 82.3613 121.234 88.3642 113.131C88.9421 112.351 88.7782 111.25 87.9982 110.672C87.2192 110.094 86.1173 110.258 85.5395 111.038C80.0581 118.438 72.0435 123.503 62.972 125.3C53.8454 127.109 44.4402 125.437 36.4888 120.593C19.0327 109.957 13.4836 87.1036 24.1189 69.6475C30.8349 58.6243 42.4236 52.3518 54.4482 51.902C50.4209 62.8474 51.4344 74.7248 56.5827 84.6284C55.7656 85.7087 54.9946 86.8395 54.2751 88.0204C48.4419 97.5947 46.8299 109.281 49.8525 120.083C50.114 121.018 51.084 121.563 52.019 121.302C52.9539 121.04 53.4997 120.07 53.238 119.135C50.477 109.269 51.9494 98.5947 57.2774 89.8496C57.6732 89.1999 58.088 88.5686 58.5168 87.9522C59.1994 89.0081 59.9328 90.0346 60.7155 91.0282C64.3715 95.6999 69.332 99.7409 74.955 102.448C80.0322 104.904 85.8884 106.313 91.4394 106.44C102.982 106.739 114.399 102.106 122.452 93.3321C127.568 104.225 127.309 117.401 120.592 128.425C109.957 145.881 87.1034 151.43 69.6473 140.795Z" fill="#E7E7E7"/>
</g>
<defs>
<clipPath id="clip0">
<rect width="120" height="120" fill="white" transform="translate(62.4355) rotate(31.3523)"/>
</clipPath>
</defs>
</svg>
