<svg width="233" height="201" viewBox="0 0 233 201" fill="none" xmlns="http://www.w3.org/2000/svg">
<circle cx="68.6604" cy="5" r="5" fill="#FF5C00"/>
<circle cx="5" cy="5" r="5" fill="#FF5C00"/>
<circle cx="36.8302" cy="5" r="5" fill="#FF5C00"/>
<circle cx="100.49" cy="5" r="5" fill="#FF5C00"/>
<circle cx="195.981" cy="5" r="5" fill="#FF5C00"/>
<circle cx="132.321" cy="5" r="5" fill="#FF5C00"/>
<circle cx="164.151" cy="5" r="5" fill="#FF5C00"/>
<circle cx="227.811" cy="5" r="5" fill="#FF5C00"/>
<circle cx="68.6604" cy="32.2832" r="5" fill="#FF5C00"/>
<circle cx="5" cy="32.2832" r="5" fill="#FF5C00"/>
<circle cx="36.8302" cy="32.2832" r="5" fill="#FF5C00"/>
<circle cx="100.49" cy="32.2832" r="5" fill="#FF5C00"/>
<circle cx="195.981" cy="32.2832" r="5" fill="#FF5C00"/>
<circle cx="132.321" cy="32.2832" r="5" fill="#FF5C00"/>
<circle cx="164.151" cy="32.2832" r="5" fill="#FF5C00"/>
<circle cx="227.811" cy="32.2832" r="5" fill="#FF5C00"/>
<circle cx="68.6604" cy="168.698" r="5" fill="#FF5C00"/>
<circle cx="5" cy="168.698" r="5" fill="#FF5C00"/>
<circle cx="36.8302" cy="168.698" r="5" fill="#FF5C00"/>
<circle cx="100.49" cy="168.698" r="5" fill="#FF5C00"/>
<circle cx="195.981" cy="168.698" r="5" fill="#FF5C00"/>
<circle cx="132.321" cy="168.698" r="5" fill="#FF5C00"/>
<circle cx="164.151" cy="168.698" r="5" fill="#FF5C00"/>
<circle cx="227.811" cy="168.698" r="5" fill="#FF5C00"/>
<circle cx="68.6604" cy="195.981" r="5" fill="#FF5C00"/>
<circle cx="5" cy="195.981" r="5" fill="#FF5C00"/>
<circle cx="36.8302" cy="195.981" r="5" fill="#FF5C00"/>
<circle cx="100.49" cy="195.981" r="5" fill="#FF5C00"/>
<circle cx="195.981" cy="195.981" r="5" fill="#FF5C00"/>
<circle cx="132.321" cy="195.981" r="5" fill="#FF5C00"/>
<circle cx="164.151" cy="195.981" r="5" fill="#FF5C00"/>
<circle cx="227.811" cy="195.981" r="5" fill="#FF5C00"/>
<circle cx="68.6604" cy="114.133" r="5" fill="#FF5C00"/>
<circle cx="5" cy="114.133" r="5" fill="#FF5C00"/>
<circle cx="36.8302" cy="114.133" r="5" fill="#FF5C00"/>
<circle cx="100.49" cy="114.133" r="5" fill="#FF5C00"/>
<circle cx="195.981" cy="114.133" r="5" fill="#FF5C00"/>
<circle cx="132.321" cy="114.133" r="5" fill="#FF5C00"/>
<circle cx="164.151" cy="114.133" r="5" fill="#FF5C00"/>
<circle cx="227.811" cy="114.133" r="5" fill="#FF5C00"/>
<circle cx="68.6604" cy="141.416" r="5" fill="#FF5C00"/>
<circle cx="5" cy="141.416" r="5" fill="#FF5C00"/>
<circle cx="36.8302" cy="141.416" r="5" fill="#FF5C00"/>
<circle cx="100.49" cy="141.416" r="5" fill="#FF5C00"/>
<circle cx="195.981" cy="141.416" r="5" fill="#FF5C00"/>
<circle cx="132.321" cy="141.416" r="5" fill="#FF5C00"/>
<circle cx="164.151" cy="141.416" r="5" fill="#FF5C00"/>
<circle cx="227.811" cy="141.416" r="5" fill="#FF5C00"/>
<circle cx="68.6604" cy="59.5654" r="5" fill="#FF5C00"/>
<circle cx="5" cy="59.5654" r="5" fill="#FF5C00"/>
<circle cx="36.8302" cy="59.5654" r="5" fill="#FF5C00"/>
<circle cx="100.49" cy="59.5654" r="5" fill="#FF5C00"/>
<circle cx="195.981" cy="59.5654" r="5" fill="#FF5C00"/>
<circle cx="132.321" cy="59.5654" r="5" fill="#FF5C00"/>
<circle cx="164.151" cy="59.5654" r="5" fill="#FF5C00"/>
<circle cx="227.811" cy="59.5654" r="5" fill="#FF5C00"/>
<circle cx="68.6604" cy="86.8486" r="5" fill="#FF5C00"/>
<circle cx="5" cy="86.8486" r="5" fill="#FF5C00"/>
<circle cx="36.8302" cy="86.8486" r="5" fill="#FF5C00"/>
<circle cx="100.49" cy="86.8486" r="5" fill="#FF5C00"/>
<circle cx="195.981" cy="86.8486" r="5" fill="#FF5C00"/>
<circle cx="132.321" cy="86.8486" r="5" fill="#FF5C00"/>
<circle cx="164.151" cy="86.8486" r="5" fill="#FF5C00"/>
<circle cx="227.811" cy="86.8486" r="5" fill="#FF5C00"/>
</svg>
